<svg width="200mm" height="200mm" viewBox="0 0 680 680" xmlns="http://www.w3.org/2000/svg">
<rect width="680" height="680" fill="#fff"/>
<rect x="20" y="20" width="640" height="640" fill="#000"/>
<rect x="40" y="40" width="600" height="600" fill="#fff"/>
<rect x="55" y="55" width="570" height="570" fill="none" stroke="#000" stroke-width="4"/>
<!-- Canto sup-esq: quadrado (orientação) -->
<rect x="68" y="68" width="100" height="100" fill="#000"/>
<rect x="82" y="82" width="72" height="72" fill="#fff"/>
<rect x="96" y="96" width="44" height="44" fill="#000"/>
<!-- Canto sup-dir: escalonado -->
<rect x="512" y="68" width="100" height="34" fill="#000"/>
<rect x="512" y="68" width="34" height="100" fill="#000"/>
<rect x="546" y="102" width="66" height="32" fill="#000"/>
<rect x="578" y="68" width="34" height="66" fill="#000"/>
<!-- Canto inf-esq: diamante -->
<polygon points="68,578 118,528 168,578 118,628" fill="#000"/>
<polygon points="88,578 118,548 148,578 118,608" fill="#fff"/>
<polygon points="103,578 118,563 133,578 118,593" fill="#000"/>
<!-- Canto inf-dir: círculos -->
<circle cx="618" cy="618" r="50" fill="#000"/>
<circle cx="618" cy="618" r="35" fill="#fff"/>
<circle cx="618" cy="618" r="20" fill="#000"/>
<circle cx="618" cy="618" r="8" fill="#fff"/>
<!-- Centro: grade assimétrica -->
<g transform="translate(230,230)">
  <rect x="0"   y="0"   width="30" height="30" fill="#000"/>
  <rect x="60"  y="0"   width="30" height="30" fill="#000"/>
  <rect x="120" y="0"   width="30" height="30" fill="#000"/>
  <rect x="180" y="0"   width="30" height="30" fill="#000"/>
  <rect x="0"   y="40"  width="30" height="30" fill="#000"/>
  <rect x="80"  y="40"  width="60" height="30" fill="#000"/>
  <rect x="180" y="40"  width="30" height="30" fill="#000"/>
  <rect x="0"   y="80"  width="30" height="30" fill="#000"/>
  <rect x="40"  y="80"  width="30" height="30" fill="#000"/>
  <rect x="100" y="80"  width="30" height="30" fill="#000"/>
  <rect x="160" y="80"  width="50" height="30" fill="#000"/>
  <rect x="20"  y="120" width="70" height="30" fill="#000"/>
  <rect x="120" y="120" width="30" height="30" fill="#000"/>
  <rect x="170" y="120" width="40" height="30" fill="#000"/>
  <rect x="0"   y="160" width="50" height="30" fill="#000"/>
  <rect x="70"  y="160" width="30" height="30" fill="#000"/>
  <rect x="120" y="160" width="90" height="30" fill="#000"/>
  <rect x="0"   y="200" width="30" height="30" fill="#000"/>
  <rect x="60"  y="200" width="60" height="30" fill="#000"/>
  <rect x="150" y="200" width="30" height="30" fill="#000"/>
  <rect x="190" y="200" width="20" height="30" fill="#000"/>
</g>
<!-- Faixas laterais -->
<rect x="68"  y="200" width="50" height="15" fill="#000"/>
<rect x="68"  y="225" width="35" height="10" fill="#000"/>
<rect x="68"  y="245" width="50" height="20" fill="#000"/>
<rect x="68"  y="275" width="20" height="10" fill="#000"/>
<rect x="68"  y="295" width="50" height="15" fill="#000"/>
<rect x="68"  y="320" width="30" height="20" fill="#000"/>
<rect x="68"  y="350" width="50" height="10" fill="#000"/>
<rect x="68"  y="370" width="40" height="20" fill="#000"/>
<rect x="68"  y="400" width="50" height="15" fill="#000"/>
<rect x="68"  y="425" width="15" height="10" fill="#000"/>
<rect x="68"  y="445" width="50" height="20" fill="#000"/>
<rect x="68"  y="475" width="35" height="10" fill="#000"/>
<rect x="562" y="200" width="50" height="20" fill="#000"/>
<rect x="577" y="230" width="35" height="10" fill="#000"/>
<rect x="562" y="250" width="50" height="15" fill="#000"/>
<rect x="562" y="275" width="30" height="20" fill="#000"/>
<rect x="577" y="305" width="35" height="10" fill="#000"/>
<rect x="562" y="325" width="50" height="20" fill="#000"/>
<rect x="577" y="355" width="20" height="10" fill="#000"/>
<rect x="562" y="375" width="50" height="15" fill="#000"/>
<rect x="562" y="400" width="35" height="20" fill="#000"/>
<rect x="577" y="430" width="35" height="10" fill="#000"/>
<rect x="562" y="450" width="50" height="20" fill="#000"/>
<rect x="577" y="480" width="20" height="10" fill="#000"/>
<!-- Topo -->
<rect x="200" y="68"  width="15" height="50" fill="#000"/>
<rect x="225" y="68"  width="20" height="35" fill="#000"/>
<rect x="255" y="68"  width="15" height="50" fill="#000"/>
<rect x="280" y="68"  width="30" height="20" fill="#000"/>
<rect x="320" y="68"  width="15" height="50" fill="#000"/>
<rect x="345" y="68"  width="25" height="30" fill="#000"/>
<rect x="380" y="68"  width="15" height="50" fill="#000"/>
<rect x="405" y="68"  width="30" height="40" fill="#000"/>
<rect x="445" y="68"  width="15" height="50" fill="#000"/>
<rect x="470" y="68"  width="20" height="25" fill="#000"/>
<!-- Base -->
<rect x="200" y="562" width="20" height="50" fill="#000"/>
<rect x="230" y="577" width="15" height="35" fill="#000"/>
<rect x="255" y="562" width="25" height="50" fill="#000"/>
<rect x="290" y="577" width="15" height="30" fill="#000"/>
<rect x="315" y="562" width="20" height="50" fill="#000"/>
<rect x="345" y="577" width="25" height="35" fill="#000"/>
<rect x="380" y="562" width="15" height="50" fill="#000"/>
<rect x="405" y="577" width="30" height="20" fill="#000"/>
<rect x="445" y="562" width="20" height="50" fill="#000"/>
<rect x="475" y="577" width="15" height="30" fill="#000"/>
<!-- Triângulo de orientação sup-esq -->
<polygon points="40,40 80,40 40,80" fill="#fff"/>
</svg>
